<svg viewBox="0 0 96 96" xmlns="http://www.w3.org/2000/svg" xmlns:xlink="http://www.w3.org/1999/xlink" id="Icons_HeartOrgan_M" overflow="hidden"><style>
.MsftOfcThm_Background1_Fill_v2 {
 fill:#FFFFFF; 
}
</style>
<g id="Icons"><path d="M20.712 35.969C20.856 36.533 21.285 38.14 22.012 40.176 22.4995 39.618 23.0255 39.0947 23.586 38.61 23.04 36.979 22.806 36.043 22.717 35.673 22.6799 35.5164 22.6297 35.3632 22.567 35.215 21.8264 33.3278 20.9345 31.5035 19.9 29.76 18.888 28.109 18.448 27.482 18.307 27.289 18.285 27.261 18.263 27.233 18.239 27.207 17.3078 26.1876 17.3793 24.6063 18.3987 23.6751 18.7303 23.3722 19.1373 23.1642 19.577 23.073 19.7465 23.0381 19.919 23.0204 20.092 23.02 20.577 23.0204 21.0512 23.163 21.456 23.43 21.856 23.688 22.137 23.875 23.847 26.63 24.1385 27.0991 24.7551 27.243 25.2242 26.9514 25.4868 26.7882 25.6592 26.5126 25.691 26.205 25.727 25.854 25.768 25.505 25.816 25.147 26.283 21.788 26.491 21.177 26.723 20.792 27.3917 19.584 28.9131 19.1469 30.121 19.8156 31.189 20.4068 31.6738 21.6828 31.268 22.834 31.256 22.869 31.193 23.147 31.156 23.35 31.076 23.782 30.949 24.55 30.77 25.835 30.5192 27.8547 30.4329 29.8914 30.512 31.925 30.518 32.037 30.52 32.195 30.523 32.377 30.5118 32.9754 30.553 33.5737 30.646 34.165 30.707 34.452 30.82 34.927 31.01 35.565L31.021 35.565C31.785 35.457 32.449 35.381 33.029 35.326 32.8 34.596 32.667 34.053 32.603 33.752 32.5415 33.288 32.5144 32.82 32.522 32.352 32.522 32.14 32.522 31.952 32.51 31.823 32.4353 29.916 32.5156 28.006 32.75 26.112 32.991 24.381 33.13 23.657 33.18 23.424 33.95 21.0511 32.6507 18.5033 30.2778 17.7333 30.147 17.6908 30.0142 17.6544 29.88 17.624 28.0314 17.2033 26.1189 17.998 25.113 19.605 24.685 20.267 24.45 20.855 24.073 23.279 24.073 23.292 24.062 23.294 24.055 23.279 23.7024 22.7292 23.2512 22.2495 22.724 21.864 22.063 21.3826 21.2828 21.0914 20.468 21.022 17.986 20.82 15.8101 22.6684 15.6082 25.1504 15.5085 26.3751 15.913 27.5875 16.728 28.507 16.863 28.695 17.276 29.292 18.2 30.801 19.1395 32.3887 19.9556 34.0462 20.641 35.759 20.661 35.835 20.706 35.954 20.712 35.969Z" class="MsftOfcThm_Background1_Fill_v2" fill="#FFFFFF"/><path d="M76.188 51.658C73.77 43.84 69.539 37.6 67.439 35.5 66.7696 34.866 66.0417 34.2968 65.265 33.8 64.711 34.1933 64.156 34.6267 63.6 35.1 64.4687 35.6175 65.2814 36.2237 66.025 36.909 67.683 38.567 71.88 44.497 74.277 52.248 76.2687 58.7713 76.8244 65.6485 75.906 72.407 75.352 76.707 72.637 82.959 69.834 84.877 66.857 86.913 57.934 87.738 51.816 86.544 45.3361 85.0625 39.2197 82.2944 33.83 78.404 32.3177 77.2937 30.8676 76.1012 29.486 74.832 27.4317 72.6248 25.5274 70.2826 23.786 67.821 21.2509 64.2586 19.9959 59.9433 20.225 55.577 20.509 48.796 22.983 45.162 24.819 43.02 26.719 40.808 28.294 39.991 31.576 39.525 32.826 39.3361 34.0863 39.2236 35.35 39.188 35.6902 39.262 36.0458 39.1933 36.334 38.998L36.782 38.616 36.791 38.116C36.801 37.499 36.805 36.895 36.809 36.299 36.6995 33.2939 37.0023 30.2879 37.709 27.365 38.4983 24.3754 40.0225 21.6305 42.143 19.38L42.543 18.966 42.387 18.415C42.194 17.733 42.028 17.068 41.893 16.438 41.144 12.928 41.217 12.616 41.293 12.314 41.4807 11.5071 42.2869 11.0051 43.0938 11.1928 43.774 11.351 44.255 11.9577 44.254 12.656L44.261 12.769C44.287 12.999 44.394 13.743 44.81 15.707L45.071 16.94 46.212 16.405C46.286 16.37 46.362 16.34 46.438 16.31L47.238 15.972 47.212 15.283C47.197 14.859 47.186 14.431 47.189 13.998 47.212 10.41 47.352 10.122 47.489 9.842 47.8477 9.09527 48.7439 8.78074 49.4906 9.13948 50.118 9.44088 50.4556 10.1343 50.306 10.814L50.288 10.92C50.264 11.149 50.204 11.91 50.188 14.02 50.188 14.12 50.188 14.21 50.193 14.305L50.25 15.374 52.179 15.519 52.465 14.399C52.537 14.112 52.61 13.825 52.695 13.537 53.731 10.099 53.946 9.861 54.154 9.632 54.7104 9.01826 55.659 8.9718 56.2728 9.52823 56.786 9.99356 56.9138 10.7499 56.582 11.358L56.534 11.458C56.445 11.676 56.171 12.398 55.568 14.401 55.417 14.901 55.283 15.413 55.162 15.914L55.002 16.583 55.569 16.972C55.967 17.251 56.3437 17.5592 56.696 17.894 57.284 17.5253 57.879 17.1753 58.481 16.844 58.1022 16.4505 57.6973 16.083 57.269 15.744 57.336 15.489 57.407 15.234 57.483 14.981 58.036 13.146 58.291 12.457 58.366 12.267 59.2653 10.5559 58.6072 8.43982 56.8962 7.54052 55.4819 6.7972 53.7437 7.106 52.672 8.291 52.4268 8.55101 52.2267 8.85012 52.08 9.176 51.3223 7.38511 49.2562 6.54758 47.4653 7.30533 46.2497 7.81966 45.4238 8.97069 45.326 10.287 44.0146 8.86693 41.8002 8.77887 40.3802 10.0903 39.8675 10.5638 39.508 11.1797 39.348 11.859 39.18 12.57 39.135 13.079 39.948 16.859 40.055 17.359 40.181 17.884 40.323 18.416 38.1749 20.8315 36.623 23.7171 35.792 26.841 35.0357 29.9307 34.7102 33.1101 34.825 36.289 34.825 36.593 34.8227 36.8993 34.818 37.208 34.131 37.237 32.936 37.319 31.311 37.55 27.551 38.084 25.533 39.137 23.317 41.723 21.287 44.092 18.552 48.097 18.243 55.499 17.9928 60.3141 19.3785 65.0722 22.175 69 24.035 71.55 25.529 73.374 26.456 74.455 26.9684 75.0916 27.5173 75.698 28.1 76.271 29.5386 77.5962 31.0493 78.8411 32.625 80 38.2617 84.0667 44.6579 86.9596 51.434 88.507 53.6686 88.9205 55.9375 89.1214 58.21 89.107 63.41 89.107 68.584 88.153 70.963 86.526 74.335 84.218 77.268 77.494 77.891 72.661 78.8442 65.6191 78.2632 58.4544 76.188 51.658Z" class="MsftOfcThm_Background1_Fill_v2" fill="#FFFFFF"/><path d="M57.719 41.834C57.6426 41.8337 57.5665 41.825 57.492 41.808 56.9539 41.6836 56.6185 41.1466 56.7429 40.6085 56.7429 40.6083 56.743 40.6082 56.743 40.608 57.264 38.362 58.443 34.323 60.491 32.498 62.9042 30.2645 65.7585 28.5613 68.87 27.498 71.4842 26.6083 72.8822 23.7677 71.9925 21.1535 71.1028 18.5393 68.2622 17.1413 65.648 18.031 61.2723 19.5257 57.2528 21.9089 53.842 25.031 49.703 28.717 47.724 34.831 46.793 39.307 46.6806 39.848 46.151 40.1954 45.61 40.083 45.069 39.9706 44.7216 39.441 44.834 38.9 45.827 34.127 47.965 27.587 52.512 23.537 56.1205 20.2367 60.372 17.7176 65 16.138 68.6597 14.892 72.6365 16.8488 73.8825 20.5085 75.1285 24.1682 73.1717 28.145 69.512 29.391 66.6546 30.371 64.0338 31.9379 61.818 33.991 60.624 35.055 59.483 37.632 58.689 41.059 58.5846 41.5111 58.183 41.832 57.719 41.834Z" class="MsftOfcThm_Background1_Fill_v2" fill="#FFFFFF"/><path d="M71.6 70.8C71.1634 69.0346 70.3798 67.3737 69.295 65.914 68.556 65.027 67.534 63.864 66.476 62.661 65.213 61.224 63.906 59.738 62.976 58.605 62.541 58.074 62.042 57.453 61.552 56.765 62.3872 56.3814 63.2888 56.1634 64.207 56.123 65.2764 56.2133 66.3211 56.4937 67.292 56.951 67.7653 57.2357 68.3798 57.0828 68.6645 56.6095 68.9492 56.1362 68.7963 55.5217 68.323 55.237 67.1197 54.6221 65.8077 54.2484 64.461 54.137 63.0816 54.1334 61.7191 54.441 60.475 55.037 59.7284 53.71 59.3165 52.221 59.275 50.699 59.3827 47.8697 60.3843 45.1474 62.136 42.923 62.4933 42.5019 62.4416 41.8708 62.0205 41.5135 61.5994 41.1562 60.9683 41.2079 60.611 41.629 58.5397 44.2139 57.3685 47.404 57.275 50.715 57.309 54.756 59.782 57.856 61.332 59.749 61.9598 61.7967 61.9396 63.9883 61.274 66.024 60.8853 67.248 60.3862 68.4342 59.783 69.568 59.2134 70.6363 58.7415 71.7538 58.373 72.907 57.9713 74.788 57.7877 76.709 57.826 78.632 57.8358 79.1772 58.2807 79.6141 58.826 79.614L58.844 79.614C59.3962 79.6041 59.8359 79.1485 59.826 78.5963 59.826 78.5962 59.826 78.5961 59.826 78.596 59.7925 76.8651 59.9515 75.1358 60.3 73.44 60.6382 72.4082 61.0655 71.4078 61.577 70.45 62.2376 69.2052 62.781 67.9015 63.2 66.556 63.5646 65.2693 63.7543 63.9393 63.764 62.602 64.164 63.058 64.564 63.518 64.964 63.976 66.009 65.165 67.019 66.314 67.75 67.19 68.6354 68.4129 69.2783 69.7942 69.644 71.259 69.7517 71.7086 70.1536 72.0258 70.616 72.026 70.6964 72.0266 70.7766 72.0179 70.855 72 71.3917 71.8737 71.7249 71.337 71.6 70.8Z" class="MsftOfcThm_Background1_Fill_v2" fill="#FFFFFF"/></g></svg>